<svg xmlns="http://www.w3.org/2000/svg" data-name="Layer 1" viewBox="0 0 100 125" x="0px" y="0px"><title>Avocado</title><path d="M37,77.37a33.12,33.12,0,0,0,5.51-.45,26,26,0,0,0,3.38,2.45,15.55,15.55,0,0,0,8.16,2,29.78,29.78,0,0,0,13.9-3.75,40.5,40.5,0,0,0,7.21-6.45l.59-.63a29.3,29.3,0,0,1,5.78-3.43c2.15-.84,6.15-5.1,6-9.26h0a5.87,5.87,0,0,0-.77-3.45c-.78-1.31-2.47-2.91-6.07-3.07a44.65,44.65,0,0,0-9.27.71,15.8,15.8,0,0,1-2.5.29l-1.2-.15a75.86,75.86,0,0,0-10.49-.81C56.29,48.66,58.61,46,58.64,46l.08-.1a5.2,5.2,0,0,1,.34-.4c1.09-1.22,3.63-4.08,4.63-10.19a14.91,14.91,0,0,0-3.54-12,4.82,4.82,0,0,0,.74-2.34c.06-1.65,0-3.2,0-3.27l0-1H57l.18,1.15a6.22,6.22,0,0,1-.36,3.44c-1.93-.62-7.78-2.11-13,.72a48.09,48.09,0,0,0-7,4.89c-2.7,2.15-5.24,4.17-7.63,4.63-2.78.53-12.18,3-16.24,12.85-3.66,8.86-2.44,18.71,3.11,25.1C20.89,75,29.35,77.37,37,77.37Zm43.8-12.06a29.71,29.71,0,0,0-6.47,3.88l-.64.68A38.78,38.78,0,0,1,66.86,76C64,77.79,53.53,81.7,46.92,77.67a23.63,23.63,0,0,1-3.33-2.46,26.93,26.93,0,0,0,9.21,1.49A29.11,29.11,0,0,0,58,76.25c4.67-.85,9.58-2.07,13.77-6.7.42-.35,3.67-3,6.39-3.62a15.54,15.54,0,0,0,4-1.55A5.15,5.15,0,0,1,80.78,65.31ZM67.38,54.23c.61.08,1.06.14,1.31.16a14.47,14.47,0,0,0,3-.31,42.45,42.45,0,0,1,8.87-.69c2.14.09,3.67.82,4.44,2.09a3.94,3.94,0,0,1,.15,3.6c-1,2-4.32,4.23-7.44,4.9-3.4.73-7.16,4-7.32,4.1l-.09.09c-3.78,4.21-8.34,5.33-12.68,6.12-4.87.88-11,.28-14.37-1.41-3.1-1.57-7.36-5.87-5.64-10.71,1.59-4.45,6.44-5.91,12.06-7.6l1.15-.35a24.18,24.18,0,0,1,6.74-.78A76.6,76.6,0,0,1,67.38,54.23Zm-52.5-9.08c3.58-8.65,11.52-11,14.76-11.65,2.87-.55,5.6-2.73,8.5-5a46.59,46.59,0,0,1,6.67-4.7c4.62-2.51,10.08-1,11.57-.53a2.3,2.3,0,0,0,2.1,1.34h.16A13,13,0,0,1,61.72,35c-.91,5.54-3.18,8.1-4.15,9.19-.2.22-.35.4-.45.54-.37.42-2.78,3.36-2,6.81a21.89,21.89,0,0,0-4.91.8l-1.14.34c-5.88,1.77-11.44,3.44-13.36,8.84a8.89,8.89,0,0,0,.68,7.39,20.79,20.79,0,0,0,4.26,6.28c-8.87,1-18.5-1.83-23-7C12.59,62.35,11.51,53.32,14.88,45.15Z"/><path d="M42.13,64.87a24,24,0,0,0,7.45,2.77,26,26,0,0,0,8.05.38,19.93,19.93,0,0,0,7.71-2.53c.58-.36,1.16-.71,1.72-1.08l1.53-1.32c.24-.23.51-.44.73-.68l.64-.78c.42-.52.83-1,1.22-1.57-.55.38-1.08.77-1.6,1.16l-.77.59c-.26.19-.56.33-.83.5l-1.63,1-1.72.8a12.49,12.49,0,0,1-1.76.68,13,13,0,0,1-1.79.56l-1.83.44L57.39,66a37.21,37.21,0,0,1-7.59.07A58.89,58.89,0,0,1,42.13,64.87Z"/><path d="M19.27,52.42a13.52,13.52,0,0,0,1.46-2.67,21.65,21.65,0,0,0,1-2.79c-.64.76-1.22,1.54-1.82,2.29a23,23,0,0,1-1.78,2.13.81.81,0,0,1-.28.21.53.53,0,0,1-.28,0c-.06,0-.05,0-.06-.07a.63.63,0,0,1,0-.22,3.12,3.12,0,0,1,.13-1A10.41,10.41,0,0,1,18,49,42.58,42.58,0,0,1,20.34,44a6.81,6.81,0,0,1,.72-1,1.41,1.41,0,0,1,.93-.48,2.06,2.06,0,0,1,1.2.1.84.84,0,0,1,.45,1.06,1.26,1.26,0,0,0,.26-.73,1.2,1.2,0,0,0-.39-.78A2.62,2.62,0,0,0,22,41.44a3.1,3.1,0,0,0-.88.06,2.39,2.39,0,0,0-.87.4,6.41,6.41,0,0,0-1.16,1.15,20.81,20.81,0,0,0-2.91,5.24,6.19,6.19,0,0,0-.56,3.35,2.21,2.21,0,0,0,.54,1.08,1.9,1.9,0,0,0,1.19.6,2.19,2.19,0,0,0,1.14-.18A2.34,2.34,0,0,0,19.27,52.42Z"/><path d="M28.42,42.2h.22A4.89,4.89,0,0,0,31,41.53a4.8,4.8,0,0,0,1.9-1.93A2.65,2.65,0,0,0,33,37c-.82-1.42-2.95-1.67-4.85-.57a4.8,4.8,0,0,0-1.9,1.93,2.49,2.49,0,0,0,2.19,3.79Zm-.4-2.9a2.84,2.84,0,0,1,1.11-1.1,2.89,2.89,0,0,1,1.41-.42.82.82,0,0,1,.71.25.75.75,0,0,1-.09.65A2.82,2.82,0,0,1,30,39.79a2.9,2.9,0,0,1-1.51.41.54.54,0,0,1-.52-.9Z"/><text x="0" y="115" fill="#000000" font-size="5px" font-weight="bold" font-family="'Helvetica Neue', Helvetica, Arial-Unicode, Arial, Sans-serif">Created by Icons Producer</text><text x="0" y="120" fill="#000000" font-size="5px" font-weight="bold" font-family="'Helvetica Neue', Helvetica, Arial-Unicode, Arial, Sans-serif">from the Noun Project</text></svg>